<svg width="32" height="32" viewBox="0 0 32 32" fill="none" xmlns="http://www.w3.org/2000/svg">
  <!-- Taça de vinho elegante -->
  <defs>
    <!-- Gradiente para o vinho -->
    <linearGradient id="wine" x1="0%" y1="0%" x2="0%" y2="100%">
      <stop offset="0%" style="stop-color:#8B0000;stop-opacity:1" />
      <stop offset="100%" style="stop-color:#4A0000;stop-opacity:1" />
    </linearGradient>
    
    <!-- Gradiente para a taça -->
    <linearGradient id="glass" x1="0%" y1="0%" x2="100%" y2="100%">
      <stop offset="0%" style="stop-color:#F8F8FF;stop-opacity:0.9" />
      <stop offset="100%" style="stop-color:#E6E6FA;stop-opacity:0.7" />
    </linearGradient>
    
    <!-- Sombra -->
    <filter id="shadow">
      <feDropShadow dx="1" dy="2" stdDeviation="1" flood-color="#000000" flood-opacity="0.3"/>
    </filter>
  </defs>
  
  <!-- Base da taça -->
  <ellipse cx="16" cy="28" rx="8" ry="2" fill="#722F37" opacity="0.8"/>
  
  <!-- Haste da taça -->
  <rect x="15" y="20" width="2" height="8" fill="#722F37"/>
  
  <!-- Taça (contorno) -->
  <path d="M 8 4 Q 8 2 10 2 L 22 2 Q 24 2 24 4 L 24 12 Q 24 18 16 20 Q 8 18 8 12 Z" 
        fill="url(#glass)" 
        stroke="#722F37" 
        stroke-width="0.8" 
        filter="url(#shadow)"/>
  
  <!-- Vinho dentro da taça -->
  <path d="M 9.5 4.5 Q 9.5 3.5 10.5 3.5 L 21.5 3.5 Q 22.5 3.5 22.5 4.5 L 22.5 10 Q 22.5 14.5 16 16 Q 9.5 14.5 9.5 10 Z" 
        fill="url(#wine)" 
        opacity="0.9"/>
  
  <!-- Brilho na taça -->
  <ellipse cx="13" cy="8" rx="2" ry="4" fill="#FFFFFF" opacity="0.3"/>
  
  <!-- Reflexo menor -->
  <ellipse cx="11.5" cy="6" rx="0.8" ry="1.5" fill="#FFFFFF" opacity="0.6"/>
  
  <!-- Borda do vinho (menisco) -->
  <ellipse cx="16" cy="10" rx="6.5" ry="1" fill="#A00000" opacity="0.6"/>
</svg>